<svg width="6" height="10" viewBox="0 0 6 10" fill="none" xmlns="http://www.w3.org/2000/svg">
<path d="M0.493663 9.84016L0.163823 9.5126C0.060814 9.40951 0.00406557 9.27235 0.00406557 9.12577C0.00406556 8.97926 0.060814 8.84194 0.163823 8.73885L3.9006 5.00224L0.159676 1.26131C0.0566672 1.15838 4.46322e-08 1.02107 3.82282e-08 0.87456C3.18243e-08 0.728055 0.0566672 0.590655 0.159676 0.487646L0.487484 0.160001C0.700656 -0.0533338 1.04789 -0.0533338 1.26107 0.160001L5.7311 4.61402C5.83403 4.71695 5.90655 4.8541 5.90655 5.00191L5.90655 5.00362C5.90655 5.1502 5.83395 5.28736 5.7311 5.39029L1.27318 9.84016C1.17025 9.94325 1.02895 9.99984 0.882447 10C0.73586 10 0.596509 9.94325 0.493663 9.84016Z" fill="#ADADBA"/>
</svg>
