<svg width="12" height="7" viewBox="0 0 12 7" fill="none" xmlns="http://www.w3.org/2000/svg">
<path d="M5.44357 6.74914L0.188649 1.49412C0.0670113 1.37258 -5.29053e-08 1.21033 -4.53432e-08 1.03733C-3.77811e-08 0.864331 0.0670113 0.702083 0.188649 0.580541L0.575549 0.193546C0.827657 -0.0582748 1.23741 -0.0582748 1.48913 0.193546L5.90189 4.60631L10.3196 0.18865C10.4412 0.0671078 10.6033 4.63487e-07 10.7762 4.71045e-07C10.9493 4.78611e-07 11.1115 0.0671078 11.2332 0.18865L11.62 0.575645C11.7417 0.697283 11.8087 0.859435 11.8087 1.03244C11.8087 1.20544 11.7417 1.36768 11.62 1.48923L6.36032 6.74914C6.2383 6.87097 6.07537 6.93788 5.90218 6.9375C5.72832 6.93788 5.56549 6.87097 5.44357 6.74914Z" fill="#353843"/>
</svg>
