<svg width="12" height="7" viewBox="0 0 12 7" fill="none" xmlns="http://www.w3.org/2000/svg">
<path d="M5.44357 0.188363L0.188649 5.44338C0.0670113 5.56492 -5.29053e-08 5.72717 -4.53432e-08 5.90017C-3.77811e-08 6.07317 0.0670113 6.23542 0.188649 6.35696L0.575549 6.74395C0.827657 6.99577 1.23741 6.99577 1.48913 6.74395L5.90189 2.33119L10.3196 6.74885C10.4412 6.87039 10.6033 6.9375 10.7762 6.9375C10.9493 6.9375 11.1115 6.87039 11.2332 6.74885L11.62 6.36185C11.7417 6.24022 11.8087 6.07806 11.8087 5.90506C11.8087 5.73206 11.7417 5.56982 11.62 5.44827L6.36032 0.188363C6.2383 0.0665328 6.07537 -0.000382212 5.90218 2.12619e-06C5.72832 -0.000382197 5.56549 0.0665328 5.44357 0.188363Z" fill="#4FC1E9"/>
</svg>
