<svg width="26" height="24" viewBox="0 0 26 24" fill="none" xmlns="http://www.w3.org/2000/svg">
<path d="M8.83598 23.1947C10.056 23.1947 11.045 22.2056 11.045 20.9856C11.045 19.7656 10.056 18.7766 8.83598 18.7766C7.61597 18.7766 6.62695 19.7656 6.62695 20.9856C6.62695 22.2056 7.61597 23.1947 8.83598 23.1947Z" fill="white"/>
<path d="M17.6719 23.1947C18.8919 23.1947 19.8809 22.2056 19.8809 20.9856C19.8809 19.7656 18.8919 18.7766 17.6719 18.7766C16.4519 18.7766 15.4629 19.7656 15.4629 20.9856C15.4629 22.2056 16.4519 23.1947 17.6719 23.1947Z" fill="white"/>
<path d="M4.418 0.000488281H0V2.20951H4.418V0.000488281Z" fill="white"/>
<path d="M6.1631 4.418L5.5225 0H4.41796L3.31348 0.154596L5.66607 16.5675H20.599L26 4.41794H6.1631V4.418ZM19.1631 14.3585H7.5879L6.48342 6.62702H22.5981L19.1631 14.3585Z" fill="white"/>
</svg>
