<svg width="9" height="7" viewBox="0 0 9 7" fill="none" xmlns="http://www.w3.org/2000/svg">
<path d="M7.9954 1.39872L7.30436 0.707685C7.2096 0.61286 7.09436 0.56543 6.95891 0.56543C6.82333 0.56543 6.70809 0.61286 6.61334 0.707685L3.27998 4.04607L1.78609 2.54708C1.69123 2.45222 1.57606 2.40485 1.4406 2.40485C1.30506 2.40485 1.18989 2.45222 1.09503 2.54708L0.403991 3.23814C0.309131 3.33298 0.261719 3.44819 0.261719 3.58371C0.261719 3.71913 0.309131 3.83444 0.403991 3.92927L2.24337 5.76861L2.93447 6.45965C3.02927 6.55455 3.14447 6.60192 3.27998 6.60192C3.41544 6.60192 3.53064 6.55442 3.6255 6.45965L4.31658 5.76861L7.9954 2.08981C8.09017 1.99495 8.13767 1.87977 8.13767 1.74424C8.13774 1.60879 8.09017 1.49358 7.9954 1.39872Z" fill="white"/>
</svg>
