<svg width="22" height="22" viewBox="0 0 22 22" fill="none" xmlns="http://www.w3.org/2000/svg">
<path d="M12.6376 11L21.6609 1.97664C22.1131 1.52444 22.1131 0.791311 21.6609 0.339152C21.2087 -0.113051 20.4755 -0.113051 20.0234 0.339152L11 9.36249L1.97664 0.339152C1.52444 -0.113051 0.791311 -0.113051 0.339152 0.339152C-0.113008 0.791354 -0.113051 1.52449 0.339152 1.97664L9.36249 11L0.339152 20.0233C-0.113051 20.4755 -0.113051 21.2086 0.339152 21.6608C0.791354 22.113 1.52449 22.113 1.97664 21.6608L11 12.6375L20.0233 21.6608C20.4755 22.113 21.2086 22.113 21.6608 21.6608C22.113 21.2086 22.113 20.4755 21.6608 20.0233L12.6376 11Z" fill="#ADADBA"/>
</svg>
