<svg width="28" height="28" viewBox="0 0 28 28" fill="none" xmlns="http://www.w3.org/2000/svg">
<g filter="url(#filter0_d)">
<path d="M14.0003 20.0001C19.523 20.0001 24 15.5231 24 10.0004C24 4.47775 19.523 0.000732422 14.0003 0.000732422C8.47763 0.000732422 4.00061 4.47775 4.00061 10.0004C4.00061 15.5231 8.47763 20.0001 14.0003 20.0001Z" fill="white"/>
<path d="M23.4285 6.66602H17.2673C17.5348 8.80221 17.5365 11.156 17.2723 13.2948H23.4418C23.8018 12.2628 24 11.1549 24 10.0002C24.0001 8.83063 23.7974 7.70893 23.4285 6.66602Z" fill="#EFECEC"/>
<path d="M17.2673 6.66587H23.4286C23.4275 6.66271 23.4265 6.66005 23.4254 6.65717C22.1455 3.04849 18.8535 0.393452 14.898 0.0410156C16.4287 0.880074 16.8757 3.53844 17.2673 6.66587Z" fill="#E63026"/>
<path d="M14.8981 19.959C18.8607 19.6059 22.1574 16.9417 23.4323 13.3233C23.4356 13.3137 23.4384 13.3043 23.4419 13.2949H17.2723C16.8841 16.4393 16.4351 19.1164 14.8981 19.959Z" fill="#2B479D"/>
<path d="M4 10.0002C4 11.1549 4.19815 12.2628 4.55815 13.2948H17.7872C18.0514 11.1558 18.0496 8.80221 17.7821 6.66602H4.57141C4.20254 7.70893 4 8.83063 4 10.0002Z" fill="#EFEFEF"/>
<path d="M4.57433 6.65741C4.57324 6.66024 4.57226 6.66294 4.57117 6.66611H17.7821C17.3905 3.53864 16.4286 0.880311 14.8981 0.041252C14.6021 0.0149892 14.3027 0 13.9999 0C9.64968 0 5.95001 2.7785 4.57433 6.65741Z" fill="#E73B36"/>
<path d="M17.7872 13.2949H4.55811C4.56144 13.3043 4.56444 13.3137 4.56773 13.3233C5.93796 17.2122 9.64249 20.0003 13.9998 20.0003C14.3027 20.0003 14.6021 19.9854 14.8981 19.9589C16.4351 19.1164 17.3989 16.4393 17.7872 13.2949Z" fill="#3757A6"/>
</g>
<defs>
<filter id="filter0_d" x="0" y="0" width="28" height="28.0003" filterUnits="userSpaceOnUse" color-interpolation-filters="sRGB">
<feFlood flood-opacity="0" result="BackgroundImageFix"/>
<feColorMatrix in="SourceAlpha" type="matrix" values="0 0 0 0 0 0 0 0 0 0 0 0 0 0 0 0 0 0 127 0"/>
<feOffset dy="4"/>
<feGaussianBlur stdDeviation="2"/>
<feColorMatrix type="matrix" values="0 0 0 0 0 0 0 0 0 0 0 0 0 0 0 0 0 0 0.15 0"/>
<feBlend mode="normal" in2="BackgroundImageFix" result="effect1_dropShadow"/>
<feBlend mode="normal" in="SourceGraphic" in2="effect1_dropShadow" result="shape"/>
</filter>
</defs>
</svg>
