<svg width="18" height="18" viewBox="0 0 18 18" fill="none" xmlns="http://www.w3.org/2000/svg">
<path d="M17.9544 15.4238C17.8752 15.0437 17.503 14.7997 17.1227 14.8788C16.7425 14.9579 16.4985 15.3303 16.5776 15.7104C16.6232 15.9294 16.5689 16.1539 16.4287 16.3264C16.3475 16.4262 16.1664 16.5938 15.8663 16.5938H2.13373C1.83356 16.5938 1.65247 16.4262 1.57126 16.3264C1.43102 16.1539 1.37674 15.9294 1.42234 15.7104C2.15204 12.2055 5.24351 9.64526 8.81359 9.55891C8.87543 9.56131 8.93755 9.5625 8.99999 9.5625C9.06264 9.5625 9.125 9.56127 9.18709 9.55888C11.7019 9.61921 14.0263 10.893 15.4339 12.9922C15.6501 13.3148 16.7432 15.1093 17.0658 14.8931C17.3883 14.6768 16.8182 12.5317 16.6019 12.2091C15.4482 10.4884 13.7729 9.23724 11.8627 8.60854C13.0267 7.73564 13.7812 6.34489 13.7812 4.78125C13.7812 2.14488 11.6364 0 8.99999 0C6.36359 0 4.21874 2.14488 4.21874 4.78125C4.21874 6.34584 4.97417 7.73733 6.13943 8.61015C5.0718 8.96165 4.07003 9.50857 3.19323 10.2298C1.58546 11.5522 0.4676 13.3969 0.0456193 15.4238C-0.0866386 16.059 0.0718107 16.7113 0.480256 17.2136C0.886698 17.7134 1.48938 18 2.13373 18H15.8662C16.5106 18 17.1133 17.7134 17.5197 17.2136C17.9282 16.7113 18.0866 16.059 17.9544 15.4238ZM5.62499 4.78125C5.62499 2.92025 7.13899 1.40625 8.99999 1.40625C10.861 1.40625 12.375 2.92025 12.375 4.78125C12.375 6.58494 10.9527 8.0627 9.17081 8.15196C9.11397 8.15091 9.05701 8.15038 8.99999 8.15038C8.94325 8.15038 8.8865 8.15094 8.82983 8.152C7.04759 8.06309 5.62499 6.58519 5.62499 4.78125Z" fill="white"/>
<path d="M0.0456429 15.4238C0.124781 15.0437 0.497049 14.7997 0.877335 14.8788C1.25751 14.9579 1.50153 15.3303 1.42236 15.7104C1.37676 15.9294 1.43108 16.1539 1.57128 16.3264C1.65249 16.4262 1.83358 16.5938 2.13375 16.5938H15.8663C16.1664 16.5938 16.3475 16.4262 16.4287 16.3264C16.569 16.1539 16.6233 15.9294 16.5777 15.7104C15.848 12.2055 12.7565 9.64526 9.18641 9.55891C9.12457 9.56131 9.06245 9.5625 9.00001 9.5625C8.93736 9.5625 8.875 9.56127 8.81291 9.55888C6.29811 9.61921 3.97372 10.893 2.5661 12.9922C2.34985 13.3148 1.25681 15.1093 0.934212 14.8931C0.611689 14.6768 1.18182 12.5317 1.3981 12.2091C2.55183 10.4884 4.22713 9.23724 6.13731 8.60854C4.97328 7.73564 4.21876 6.34489 4.21876 4.78125C4.21876 2.14488 6.36361 0 9.00001 0C11.6364 0 13.7813 2.14488 13.7813 4.78125C13.7813 6.34584 13.0258 7.73733 11.8606 8.61015C12.9282 8.96165 13.93 9.50857 14.8068 10.2298C16.4145 11.5522 17.5324 13.3969 17.9544 15.4238C18.0866 16.059 17.9282 16.7113 17.5197 17.2136C17.1133 17.7134 16.5106 18 15.8663 18H2.13378C1.4894 18 0.886721 17.7134 0.480314 17.2136C0.0717983 16.7113 -0.0866146 16.059 0.0456429 15.4238ZM12.375 4.78125C12.375 2.92025 10.861 1.40625 9.00001 1.40625C7.13902 1.40625 5.62501 2.92025 5.62501 4.78125C5.62501 6.58494 7.04726 8.0627 8.82919 8.15196C8.88603 8.15091 8.94299 8.15038 9.00001 8.15038C9.05675 8.15038 9.1135 8.15094 9.17017 8.152C10.9524 8.06309 12.375 6.58519 12.375 4.78125Z" fill="white"/>
</svg>
