<svg width="16" height="15" viewBox="0 0 16 15" fill="none" xmlns="http://www.w3.org/2000/svg">
<path d="M12.0974 6.37544L7.58344 1.93344C7.47429 1.8297 7.38723 1.70561 7.32734 1.56841C7.26745 1.43121 7.23592 1.28365 7.23461 1.13433C7.23329 0.985012 7.2622 0.83693 7.31966 0.698725C7.37712 0.560522 7.46198 0.434964 7.56927 0.329376C7.67657 0.223788 7.80416 0.140285 7.94461 0.0837418C8.08505 0.0271975 8.23553 -0.0012554 8.38727 4.25487e-05C8.539 0.00133954 8.68896 0.0323607 8.82838 0.0912977C8.9678 0.150235 9.0939 0.235907 9.19932 0.343314L15.664 6.70494C15.7705 6.80913 15.855 6.93301 15.9126 7.06946C15.9703 7.20591 16 7.35222 16 7.5C16 7.64778 15.9703 7.79409 15.9126 7.93054C15.855 8.06699 15.7705 8.19087 15.664 8.29506L9.19932 14.6567C9.0939 14.7641 8.9678 14.8498 8.82838 14.9087C8.68896 14.9676 8.539 14.9987 8.38727 15C8.23553 15.0013 8.08505 14.9728 7.94461 14.9163C7.80416 14.8597 7.67657 14.7762 7.56927 14.6706C7.46198 14.565 7.37712 14.4395 7.31966 14.3013C7.2622 14.1631 7.23329 14.015 7.23461 13.8657C7.23592 13.7164 7.26745 13.5688 7.32734 13.4316C7.38723 13.2944 7.47429 13.1703 7.58344 13.0666L12.0974 8.62456L1.14277 8.62456C0.83969 8.62456 0.549021 8.50608 0.33471 8.29518C0.120398 8.08429 -3.14798e-07 7.79825 -3.27835e-07 7.5C-3.40872e-07 7.20175 0.120398 6.91571 0.33471 6.70482C0.549021 6.49392 0.83969 6.37544 1.14277 6.37544L12.0974 6.37544Z" fill="#C4C4C4"/>
</svg>
