<svg width="63" height="15" viewBox="0 0 63 15" fill="none" xmlns="http://www.w3.org/2000/svg">
<path d="M3.90261 6.37544L8.41656 1.93344C8.52571 1.8297 8.61277 1.70561 8.67266 1.56841C8.73255 1.43121 8.76408 1.28365 8.76539 1.13433C8.76671 0.985012 8.7378 0.83693 8.68034 0.698725C8.62288 0.560522 8.53802 0.434964 8.43073 0.329376C8.32343 0.223788 8.19584 0.140285 8.05539 0.0837418C7.91495 0.0271975 7.76447 -0.0012554 7.61273 4.25487e-05C7.461 0.00133954 7.31104 0.0323607 7.17162 0.0912977C7.0322 0.150235 6.9061 0.235907 6.80068 0.343314L0.336016 6.70494C0.229527 6.80913 0.145019 6.93301 0.0873531 7.06946C0.0296873 7.20591 1.28797e-06 7.35222 1.28151e-06 7.5C1.27505e-06 7.64778 0.0296872 7.79409 0.0873531 7.93054C0.145019 8.06699 0.229527 8.19087 0.336016 8.29506L6.80068 14.6567C6.9061 14.7641 7.0322 14.8498 7.17162 14.9087C7.31104 14.9676 7.461 14.9987 7.61273 15C7.76447 15.0013 7.91495 14.9728 8.05539 14.9163C8.19584 14.8597 8.32343 14.7762 8.43073 14.6706C8.53802 14.565 8.62288 14.4395 8.68034 14.3013C8.7378 14.1631 8.76671 14.015 8.76539 13.8657C8.76408 13.7164 8.73255 13.5688 8.67266 13.4316C8.61277 13.2944 8.52571 13.1703 8.41656 13.0666L3.90261 8.62456L14.8572 8.62456C15.1603 8.62456 15.451 8.50608 15.6653 8.29518C15.8796 8.08429 16 7.79825 16 7.5C16 7.20175 15.8796 6.91571 15.6653 6.70482C15.451 6.49392 15.1603 6.37544 14.8572 6.37544L3.90261 6.37544Z" fill="#C4C4C4"/>
<path d="M59.0974 6.37544L54.5834 1.93344C54.4743 1.8297 54.3872 1.70561 54.3273 1.56841C54.2674 1.43121 54.2359 1.28365 54.2346 1.13433C54.2333 0.985012 54.2622 0.83693 54.3197 0.698725C54.3771 0.560522 54.462 0.434964 54.5693 0.329376C54.6766 0.223788 54.8042 0.140285 54.9446 0.0837418C55.085 0.0271975 55.2355 -0.0012554 55.3873 4.25487e-05C55.539 0.00133954 55.689 0.0323607 55.8284 0.0912977C55.9678 0.150235 56.0939 0.235907 56.1993 0.343314L62.664 6.70494C62.7705 6.80913 62.855 6.93301 62.9126 7.06946C62.9703 7.20591 63 7.35222 63 7.5C63 7.64778 62.9703 7.79409 62.9126 7.93054C62.855 8.06699 62.7705 8.19087 62.664 8.29506L56.1993 14.6567C56.0939 14.7641 55.9678 14.8498 55.8284 14.9087C55.689 14.9676 55.539 14.9987 55.3873 15C55.2355 15.0013 55.085 14.9728 54.9446 14.9163C54.8042 14.8597 54.6766 14.7762 54.5693 14.6706C54.462 14.565 54.3771 14.4395 54.3197 14.3013C54.2622 14.1631 54.2333 14.015 54.2346 13.8657C54.2359 13.7164 54.2674 13.5688 54.3273 13.4316C54.3872 13.2944 54.4743 13.1703 54.5834 13.0666L59.0974 8.62456L48.1428 8.62456C47.8397 8.62456 47.549 8.50608 47.3347 8.29518C47.1204 8.08429 47 7.79825 47 7.5C47 7.20175 47.1204 6.91571 47.3347 6.70482C47.549 6.49392 47.8397 6.37544 48.1428 6.37544L59.0974 6.37544Z" fill="#C4C4C4"/>
</svg>
