<svg width="72" height="13" viewBox="0 0 72 13" fill="none" xmlns="http://www.w3.org/2000/svg">
<path d="M13.2121 4.7965C13.1249 4.52827 12.887 4.33837 12.6066 4.313L8.78267 3.96584L7.27142 0.427712C7.15984 0.16777 6.90597 0 6.62338 0C6.3408 0 6.08682 0.16777 5.97595 0.427712L4.46471 3.96584L0.640162 4.313C0.359804 4.33888 0.122399 4.52878 0.0346737 4.7965C-0.0525464 5.06473 0.0280033 5.35894 0.24004 5.5449L3.13064 8.07954L2.27834 11.8333C2.21599 12.1094 2.32312 12.3948 2.55213 12.5603C2.67523 12.6498 2.81986 12.6944 2.96499 12.6944C3.0897 12.6944 3.21452 12.6613 3.326 12.5946L6.62338 10.623L9.92017 12.5946C10.162 12.7391 10.4661 12.7259 10.6946 12.5603C10.9237 12.3948 11.0308 12.1094 10.9684 11.8333L10.1161 8.07954L13.0067 5.5449C13.2187 5.35894 13.2993 5.06534 13.2121 4.7965Z" fill="#FFCE54"/>
<path d="M42.1073 4.7965C42.02 4.52827 41.7821 4.33837 41.5018 4.313L37.6778 3.96584L36.1666 0.427712C36.055 0.16777 35.8011 0 35.5186 0C35.236 0 34.982 0.16777 34.8711 0.427712L33.3599 3.96584L29.5353 4.313C29.255 4.33888 29.0176 4.52878 28.9298 4.7965C28.8426 5.06473 28.9232 5.35894 29.1352 5.5449L32.0258 8.07954L31.1735 11.8333C31.1112 12.1094 31.2183 12.3948 31.4473 12.5603C31.5704 12.6498 31.715 12.6944 31.8602 12.6944C31.9849 12.6944 32.1097 12.6613 32.2212 12.5946L35.5186 10.623L38.8153 12.5946C39.0572 12.7391 39.3613 12.7259 39.5898 12.5603C39.8188 12.3948 39.9259 12.1094 39.8636 11.8333L39.0113 8.07954L41.9019 5.5449C42.1138 5.35894 42.1945 5.06534 42.1073 4.7965Z" fill="#FFCE54"/>
<path d="M27.6597 4.7965C27.5725 4.52827 27.3345 4.33837 27.0542 4.313L23.2302 3.96584L21.719 0.427712C21.6074 0.16777 21.3535 0 21.071 0C20.7884 0 20.5344 0.16777 20.4235 0.427712L18.9123 3.96584L15.0877 4.313C14.8074 4.33888 14.57 4.52878 14.4823 4.7965C14.395 5.06473 14.4756 5.35894 14.6876 5.5449L17.5782 8.07954L16.7259 11.8333C16.6636 12.1094 16.7707 12.3948 16.9997 12.5603C17.1228 12.6498 17.2674 12.6944 17.4126 12.6944C17.5373 12.6944 17.6621 12.6613 17.7736 12.5946L21.071 10.623L24.3677 12.5946C24.6096 12.7391 24.9137 12.7259 25.1422 12.5603C25.3712 12.3948 25.4784 12.1094 25.416 11.8333L24.5637 8.07954L27.4543 5.5449C27.6662 5.35894 27.7469 5.06534 27.6597 4.7965Z" fill="#FFCE54"/>
<path d="M56.5548 4.7965C56.4676 4.52827 56.2297 4.33837 55.9494 4.313L52.1254 3.96584L50.6142 0.427712C50.5026 0.16777 50.2487 0 49.9661 0C49.6836 0 49.4296 0.16777 49.3187 0.427712L47.8075 3.96584L43.9829 4.313C43.7026 4.33888 43.4651 4.52878 43.3774 4.7965C43.2902 5.06473 43.3708 5.35894 43.5828 5.5449L46.4734 8.07954L45.6211 11.8333C45.5587 12.1094 45.6659 12.3948 45.8949 12.5603C46.018 12.6498 46.1626 12.6944 46.3077 12.6944C46.4325 12.6944 46.5573 12.6613 46.6687 12.5946L49.9661 10.623L53.2629 12.5946C53.5048 12.7391 53.8089 12.7259 54.0374 12.5603C54.2664 12.3948 54.3735 12.1094 54.3112 11.8333L53.4589 8.07954L56.3495 5.5449C56.5614 5.35894 56.6421 5.06534 56.5548 4.7965Z" fill="#FFCE54"/>
<path d="M71.0024 4.7965C70.9152 4.52827 70.6773 4.33837 70.3969 4.313L66.573 3.96584L65.0618 0.427712C64.9502 0.16777 64.6963 0 64.4137 0C64.1311 0 63.8772 0.16777 63.7663 0.427712L62.255 3.96584L58.4305 4.313C58.1501 4.33888 57.9127 4.52878 57.825 4.7965C57.7378 5.06473 57.8183 5.35894 58.0304 5.5449L60.921 8.07954L60.0687 11.8333C60.0063 12.1094 60.1134 12.3948 60.3425 12.5603C60.4656 12.6498 60.6102 12.6944 60.7553 12.6944C60.88 12.6944 61.0049 12.6613 61.1163 12.5946L64.4137 10.623L67.7105 12.5946C67.9524 12.7391 68.2565 12.7259 68.485 12.5603C68.714 12.3948 68.8211 12.1094 68.7588 11.8333L67.9065 8.07954L70.7971 5.5449C71.009 5.35894 71.0896 5.06534 71.0024 4.7965Z" fill="#D1D1D4"/>
<path d="M63.7663 0.427712C63.8772 0.16777 64.1311 0 64.4137 0V10.623L61.1163 12.5946C61.0049 12.6613 60.88 12.6944 60.7553 12.6944C60.6102 12.6944 60.4656 12.6498 60.3425 12.5603C60.1134 12.3948 60.0063 12.1094 60.0687 11.8333L60.921 8.07954L58.0304 5.5449C57.8183 5.35894 57.7378 5.06473 57.825 4.7965C57.9127 4.52878 58.1501 4.33888 58.4305 4.313L62.255 3.96584L63.7663 0.427712Z" fill="#FFCE54"/>
</svg>
