<svg width="20" height="20" viewBox="0 0 20 20" fill="none" xmlns="http://www.w3.org/2000/svg">
<path d="M18.7446 17.9573L14.0524 13.0771C15.2589 11.643 15.9199 9.83848 15.9199 7.95994C15.9199 3.5709 12.349 0 7.95994 0C3.5709 0 0 3.5709 0 7.95994C0 12.349 3.5709 15.9199 7.95994 15.9199C9.60765 15.9199 11.1778 15.4229 12.5203 14.4795L17.2481 19.3966C17.4458 19.6019 17.7116 19.715 17.9964 19.715C18.266 19.715 18.5217 19.6122 18.7159 19.4254C19.1284 19.0284 19.1416 18.3702 18.7446 17.9573ZM7.95994 2.07651C11.2041 2.07651 13.8434 4.71574 13.8434 7.95994C13.8434 11.2041 11.2041 13.8434 7.95994 13.8434C4.71574 13.8434 2.07651 11.2041 2.07651 7.95994C2.07651 4.71574 4.71574 2.07651 7.95994 2.07651Z" fill="#282830"/>
</svg>
