<svg width="15" height="16" viewBox="0 0 15 16" fill="none" xmlns="http://www.w3.org/2000/svg">
<path d="M14.1666 2.66663C14.1666 3.86328 13.1967 4.83337 12 4.83337C10.8033 4.83337 9.83337 3.86328 9.83337 2.66663C9.83337 1.47009 10.8033 0.5 12 0.5C13.1967 0.5 14.1666 1.47009 14.1666 2.66663Z" fill="#6C6C7C"/>
<path d="M12 5.33337C10.5293 5.33337 9.33337 4.13733 9.33337 2.66663C9.33337 1.19604 10.5293 0 12 0C13.4707 0 14.6666 1.19604 14.6666 2.66663C14.6666 4.13733 13.4707 5.33337 12 5.33337ZM12 1C11.0807 1 10.3334 1.74805 10.3334 2.66663C10.3334 3.58533 11.0807 4.33337 12 4.33337C12.9193 4.33337 13.6666 3.58533 13.6666 2.66663C13.6666 1.74805 12.9193 1 12 1Z" fill="#6C6C7C"/>
<path d="M14.1666 13.3334C14.1666 14.5299 13.1967 15.5 12 15.5C10.8033 15.5 9.83337 14.5299 9.83337 13.3334C9.83337 12.1367 10.8033 11.1666 12 11.1666C13.1967 11.1666 14.1666 12.1367 14.1666 13.3334Z" fill="#6C6C7C"/>
<path d="M12 16C10.5293 16 9.33337 14.804 9.33337 13.3334C9.33337 11.8627 10.5293 10.6666 12 10.6666C13.4707 10.6666 14.6666 11.8627 14.6666 13.3334C14.6666 14.804 13.4707 16 12 16ZM12 11.6666C11.0807 11.6666 10.3334 12.4147 10.3334 13.3334C10.3334 14.252 11.0807 15 12 15C12.9193 15 13.6666 14.252 13.6666 13.3334C13.6666 12.4147 12.9193 11.6666 12 11.6666Z" fill="#6C6C7C"/>
<path d="M4.83337 8C4.83337 9.19666 3.86328 10.1666 2.66663 10.1666C1.47009 10.1666 0.5 9.19666 0.5 8C0.5 6.80334 1.47009 5.83337 2.66663 5.83337C3.86328 5.83337 4.83337 6.80334 4.83337 8Z" fill="#6C6C7C"/>
<path d="M2.66663 10.6666C1.19604 10.6666 0 9.4707 0 8C0 6.5293 1.19604 5.33337 2.66663 5.33337C4.13733 5.33337 5.33337 6.5293 5.33337 8C5.33337 9.4707 4.13733 10.6666 2.66663 10.6666ZM2.66663 6.33337C1.74731 6.33337 1 7.0813 1 8C1 8.9187 1.74731 9.66663 2.66663 9.66663C3.58606 9.66663 4.33337 8.9187 4.33337 8C4.33337 7.0813 3.58606 6.33337 2.66663 6.33337Z" fill="#6C6C7C"/>
<path d="M4.2406 7.68006C4.00855 7.68006 3.78321 7.55933 3.66053 7.34339C3.47852 7.02406 3.59058 6.61671 3.90992 6.43397L10.0958 2.90736C10.4152 2.72401 10.8225 2.83607 11.0053 3.15662C11.1873 3.47596 11.0752 3.88331 10.7559 4.06605L4.56983 7.59266C4.46582 7.65198 4.35254 7.68006 4.2406 7.68006Z" fill="#6C6C7C"/>
<path d="M10.4259 13.1801C10.3138 13.1801 10.2006 13.152 10.0965 13.0927L3.91053 9.56604C3.59119 9.38403 3.47925 8.97668 3.66126 8.65662C3.84253 8.33667 4.25049 8.224 4.57056 8.40735L10.7566 11.934C11.0759 12.116 11.1879 12.5233 11.0058 12.8434C10.8826 13.0593 10.6572 13.1801 10.4259 13.1801Z" fill="#6C6C7C"/>
</svg>
