<svg width="23" height="20" viewBox="0 0 23 20" fill="none" xmlns="http://www.w3.org/2000/svg">
<path d="M11.0324 18.929C11.1558 19.055 11.3238 19.125 11.4996 19.125C11.6755 19.125 11.8435 19.055 11.9669 18.929L20.3617 10.4231C22.5413 8.2155 22.5413 4.62188 20.3617 2.41338C19.3029 1.34063 17.895 0.75 16.3962 0.75C14.8973 0.75 13.4903 1.34063 12.4315 2.4125L11.4996 3.3575L10.5678 2.41338C9.50902 1.34063 8.10115 0.75 6.60315 0.75C5.10427 0.75 3.6964 1.34063 2.63765 2.41338C0.458023 4.62188 0.458023 8.2155 2.63765 10.4222L11.0324 18.929ZM3.57127 3.33475C4.38152 2.51488 5.45865 2.0625 6.60227 2.0625C7.74677 2.0625 8.82302 2.51487 9.6324 3.33562L11.0315 4.75312C11.2774 5.0025 11.7193 5.0025 11.9651 4.75312L13.3643 3.33475C14.1763 2.51488 15.2525 2.0625 16.3962 2.0625C17.5406 2.0625 18.6169 2.51488 19.4271 3.33475C21.1045 5.03487 21.1045 7.80075 19.4271 9.50175L11.4996 17.5351L3.57127 9.50088C1.8939 7.80163 1.8939 5.03487 3.57127 3.33475Z" fill="white" stroke="white" stroke-width="0.5"/>
</svg>
