<svg width="21" height="18" viewBox="0 0 21 18" fill="none" xmlns="http://www.w3.org/2000/svg">
<path d="M10.0771 17.4528C10.1888 17.5668 10.3408 17.6302 10.5 17.6302C10.6592 17.6302 10.8112 17.5668 10.9229 17.4528L18.5205 9.75461C20.4932 7.75661 20.4932 4.50422 18.5205 2.50543C17.5623 1.53454 16.2881 1 14.9316 1C13.575 1 12.3016 1.53454 11.3434 2.50464L10.5 3.3599L9.65661 2.50543C8.6984 1.53454 7.42421 1 6.06845 1C4.7119 1 3.43771 1.53454 2.47949 2.50543C0.506835 4.50422 0.506835 7.75661 2.47949 9.75382L10.0771 17.4528ZM3.32447 3.33931C4.05778 2.59729 5.03262 2.18787 6.06766 2.18787C7.10348 2.18787 8.07753 2.59729 8.81006 3.34011L10.0763 4.62301C10.2989 4.8487 10.6988 4.8487 10.9213 4.62301L12.1876 3.33931C12.9225 2.59729 13.8965 2.18787 14.9316 2.18787C15.9674 2.18787 16.9414 2.59729 17.6747 3.33931C19.1928 4.878 19.1928 7.38124 17.6747 8.92072L10.5 16.1913L3.32447 8.91993C1.80637 7.38204 1.80637 4.878 3.32447 3.33931Z" fill="#6C6C7C" stroke="#6C6C7C" stroke-width="0.5"/>
</svg>
