<svg width="123" height="42" viewBox="0 0 123 42" fill="none" xmlns="http://www.w3.org/2000/svg">
<path fill-rule="evenodd" clip-rule="evenodd" d="M100.075 0.78607C98.6871 1.07486 98.621 1.09708 98.3463 1.366C98.1072 1.6001 98.0843 1.80471 98.0843 3.70116V5.77975H97.1037C95.7351 5.77975 95.5198 5.96253 95.5066 7.13576C95.4974 7.93914 95.5271 8.03631 95.869 8.3242C96.1845 8.58999 96.3804 8.6378 97.1544 8.6378H98.0677L98.1115 12.8275C98.1534 16.8367 98.1682 17.0491 98.4586 17.7579C99.3012 19.815 101.568 20.9346 104.162 20.5749C105.599 20.3756 107.108 19.5503 107.108 18.9632C107.108 18.5469 106.211 16.8497 105.948 16.7679C105.793 16.72 105.394 16.8202 104.971 17.0131C103.707 17.589 102.632 17.344 102.184 16.3774C101.964 15.9035 101.938 15.4705 101.935 12.2525L101.933 8.65703L103.852 8.61494C106.151 8.56453 106.206 8.53478 106.285 7.30777C106.329 6.62183 106.292 6.43827 106.049 6.137L105.762 5.77975H103.847H101.933V3.52071C101.933 0.593801 101.817 0.423357 100.075 0.78607ZM5.99081 5.71128C4.72273 5.99735 4.04994 6.29147 2.99631 7.02053C1.07973 8.34667 0.00950853 10.4788 8.68647e-05 12.9898C-0.0086713 15.3081 0.644343 16.9311 2.19122 18.4352C3.74473 19.9457 5.4831 20.6157 7.8486 20.6157C9.69432 20.6157 10.9506 20.2694 12.3604 19.3724C13.7746 18.4726 14.1092 17.9451 13.6886 17.2789C13.2777 16.628 12.2774 15.7829 11.918 15.7829C11.7444 15.7829 11.3231 15.9917 10.9818 16.2469C9.88089 17.0699 9.2588 17.2776 7.91495 17.2715C6.89051 17.2668 6.6263 17.2176 6.05716 16.9258C4.42814 16.0906 3.5709 14.3051 3.88035 12.3912C4.04769 11.3561 4.32728 10.7797 5.0079 10.0674C5.81564 9.22202 6.69318 8.86476 7.98249 8.85657C9.10128 8.84956 10.1041 9.20669 11.0037 9.93263C11.7608 10.5436 12.1536 10.4758 13.0474 9.57966C13.4571 9.16888 13.8258 8.71575 13.8668 8.57285C14.1194 7.69036 11.7216 6.10167 9.46766 5.65828C8.55297 5.47835 6.9124 5.50329 5.99081 5.71128ZM21.5166 5.70998C19.026 6.26782 17.2431 7.61982 16.2138 9.73101C15.3553 11.4922 15.1845 13.1799 15.6749 15.0574C16.016 16.3625 16.4909 17.2051 17.4579 18.2205C18.9894 19.8284 20.9422 20.6116 23.4186 20.611C24.9404 20.6105 25.7141 20.4587 26.9487 19.9186C29.7372 18.6984 31.3389 16.185 31.3348 13.0361C31.332 10.8546 30.6699 9.25865 29.1579 7.78948C28.0705 6.73278 27.0129 6.14259 25.5512 5.7765C24.3776 5.48264 22.6583 5.45432 21.5166 5.70998ZM40.8409 5.66425C39.9747 5.86341 39.0009 6.41293 38.27 7.11511L37.5733 7.78454V7.04197C37.5733 5.94746 37.3541 5.77975 35.9242 5.77975C34.1182 5.77975 34.2558 5.18943 34.2558 12.9363C34.2558 17.4028 34.3014 19.5063 34.4031 19.7249C34.6191 20.1889 35.0637 20.3299 36.3114 20.3299C37.2978 20.3299 37.4686 20.2939 37.7981 20.0165L38.1704 19.7032L38.2368 15.2423C38.3098 10.3312 38.295 10.4201 39.1848 9.56849C39.6199 9.15199 40.6279 8.76706 41.2798 8.76849C42.3373 8.7707 43.3655 9.3592 43.8445 10.2368C44.1317 10.7626 44.1442 10.9343 44.2083 15.2423L44.2746 19.7033L44.647 20.0165C44.9795 20.2963 45.1442 20.3299 46.1883 20.3299C47.1595 20.3299 47.4148 20.2856 47.6973 20.068L48.0376 19.8061L48.0802 15.4886L48.1229 11.1711L48.4893 10.4408C48.9217 9.57862 49.5438 9.10626 50.5447 8.88035C51.8786 8.57921 53.1908 9.12653 53.797 10.2368C54.0839 10.7622 54.0968 10.9365 54.1614 15.1983C54.1981 17.6277 54.2771 19.7123 54.3367 19.8307C54.5282 20.211 55.152 20.3593 56.3565 20.3109C58.1214 20.24 58.009 20.5955 58.009 15.0813C58.009 11.3945 57.9697 10.3634 57.8056 9.7466C57.1093 7.12966 54.9434 5.52616 52.0986 5.52148C50.3554 5.51862 48.7543 6.1283 47.6676 7.20877L47.0797 7.79338L46.3406 7.07535C45.5542 6.31134 44.9608 5.97864 43.8822 5.69751C43.1315 5.50173 41.6197 5.48524 40.8409 5.66425ZM68.4259 5.70245C67.5233 5.92083 66.5907 6.34239 65.8354 6.8736L65.2052 7.31686L65.1173 6.77903C64.9743 5.90368 64.7731 5.77975 63.4955 5.77975C61.677 5.77975 61.8573 4.68511 61.8573 15.7238V25.1484L62.1831 25.4672C62.4835 25.7615 62.607 25.7861 63.7814 25.7861C64.9558 25.7861 65.0794 25.7615 65.3798 25.4672L65.7056 25.1484V22.2194C65.7056 19.5273 65.769 18.9954 66.0389 19.4229C66.1717 19.6333 67.3058 20.1571 68.1463 20.3964C69.0606 20.6566 70.8465 20.6848 71.8428 20.4548C74.3901 19.8666 76.5141 17.7293 77.1792 15.0849C77.6001 13.4113 77.4172 11.2557 76.7243 9.72205C76.0511 8.23209 74.6406 6.81059 73.1966 6.16662C71.832 5.55799 69.8291 5.36312 68.4259 5.70245ZM85.3061 5.71115C82.7756 6.25301 80.6313 8.19636 79.8259 10.6778C79.5066 11.6616 79.4376 13.8597 79.6928 14.9198C80.2222 17.1196 81.6245 18.8489 83.637 19.784C85.1105 20.4687 85.7934 20.6129 87.5346 20.6073C89.2446 20.6019 90.8542 20.2129 92.1929 19.4817C93.0418 19.018 93.9706 18.1333 93.9706 17.7884C93.9706 17.4376 92.644 16.1727 92.2761 16.1727C92.0953 16.1727 91.5885 16.4072 91.1502 16.6938C88.3213 18.5431 84.6231 17.7931 83.6192 15.1665C83.1136 13.8435 82.6087 13.9642 88.6479 13.9642C93.5621 13.9642 93.9625 13.9473 94.2383 13.7285C94.8796 13.2202 94.6455 11.0688 93.7567 9.301C92.3155 6.43489 88.8338 4.95585 85.3061 5.71115ZM113.704 5.71115C111.173 6.25301 109.029 8.19636 108.224 10.6778C107.904 11.6616 107.835 13.8597 108.09 14.9198C108.62 17.1196 110.022 18.8489 112.035 19.784C113.508 20.4687 114.191 20.6129 115.932 20.6073C117.642 20.6019 119.252 20.2129 120.591 19.4817C121.439 19.018 122.368 18.1333 122.368 17.7884C122.368 17.4376 121.042 16.1727 120.674 16.1727C120.493 16.1727 119.986 16.4072 119.548 16.6938C116.719 18.5431 113.021 17.7931 112.017 15.1665C111.511 13.8435 111.006 13.9642 117.046 13.9642C121.96 13.9642 122.36 13.9473 122.636 13.7285C123.277 13.2202 123.043 11.0688 122.154 9.301C120.713 6.43489 117.231 4.95585 113.704 5.71115ZM88.7289 8.68756C89.7374 9.15433 90.5132 10.1289 90.7331 11.2054L90.819 11.6258H87.0702H83.3214L83.4073 11.2054C83.4545 10.974 83.6167 10.5502 83.7676 10.2635C84.4408 8.98389 85.4992 8.38058 87.0702 8.38058C87.8409 8.38058 88.2151 8.44982 88.7289 8.68756ZM117.127 8.68756C118.135 9.15433 118.911 10.1289 119.131 11.2054L119.217 11.6258H115.468H111.719L111.805 11.2054C111.852 10.974 112.014 10.5502 112.165 10.2635C112.838 8.98389 113.897 8.38058 115.468 8.38058C116.239 8.38058 116.613 8.44982 117.127 8.68756ZM25.0565 9.16109C25.8553 9.49704 26.7462 10.3574 27.1071 11.1416C27.3687 11.7096 27.4198 12.0332 27.4193 13.1198C27.4189 14.235 27.3728 14.5101 27.0941 15.063C26.6792 15.8861 25.9937 16.5551 25.1603 16.9502C24.2475 17.3829 22.6763 17.392 21.7026 16.9702C20.8608 16.6057 20.0307 15.7898 19.6352 14.9385C19.1912 13.9825 19.2033 12.0918 19.6593 11.1711C20.2735 9.93068 21.4328 9.08847 22.8436 8.85748C23.3966 8.76707 24.4696 8.91426 25.0565 9.16109ZM71.1764 9.18889C71.9191 9.49418 72.7826 10.3664 73.1804 11.2132C73.4084 11.6985 73.466 12.0688 73.467 13.0548C73.4684 14.1167 73.4199 14.3903 73.1208 15.0146C72.3888 16.5428 71.2293 17.2629 69.4875 17.2708C68.5867 17.275 68.3107 17.2204 67.6656 16.9108C66.2678 16.24 65.5486 14.9613 65.5331 13.1198C65.5221 11.8049 65.8137 10.9279 66.5251 10.1367C67.6779 8.85463 69.4733 8.48879 71.1764 9.18889Z" fill="white"/>
<path d="M22.0906 28.0403C34.3225 34.1539 65.6282 42.1958 92.9959 25.4546C83.3603 35.2184 55.6894 49.4048 22.0906 28.0403Z" fill="white"/>
</svg>
